<svg width="43" height="43" viewBox="0 0 43 43" fill="none" xmlns="http://www.w3.org/2000/svg">
<circle cx="21.4653" cy="21.6072" r="21" transform="rotate(-180 21.4653 21.6072)" fill="#E7BC91"/>
<g clip-path="url(#clip0_60_155)">
<path fill-rule="evenodd" clip-rule="evenodd" d="M10.9423 22.3348L19.0231 30.5458C19.4599 30.8671 19.8421 30.8703 20.1686 30.5542C20.4962 30.2382 20.4983 29.856 20.176 29.4066L13.5253 22.6572H30.9952C31.4708 22.6141 31.7092 22.3222 31.7102 21.7825C31.7113 21.2428 31.4729 20.9509 30.9962 20.9079L13.5242 21.0244L20.1686 14.3254C20.5057 13.8897 20.5057 13.5064 20.1686 13.1788C19.8326 12.8502 19.4725 12.8281 19.0903 13.1137L10.9423 21.1987C10.8668 21.2756 10.8074 21.3667 10.7674 21.4668C10.7274 21.5668 10.7076 21.6738 10.7092 21.7815C10.7053 21.885 10.7241 21.9881 10.7644 22.0835C10.8046 22.179 10.8654 22.2644 10.9423 22.3338" fill="#583101"/>
</g>
<defs>
<clipPath id="clip0_60_155">
<rect width="21" height="21" fill="white" transform="matrix(0 -1 1 0 10.7092 32.3633)"/>
</clipPath>
</defs>
</svg>
