<svg width="43" height="43" viewBox="0 0 43 43" fill="none" xmlns="http://www.w3.org/2000/svg">
<circle cx="21.4653" cy="21.6072" r="21" fill="#E7BC91"/>
<g clip-path="url(#clip0_60_154)">
<path fill-rule="evenodd" clip-rule="evenodd" d="M31.9883 20.8795L23.9075 12.6685C23.4707 12.3472 23.0885 12.3441 22.762 12.6601C22.4344 12.9762 22.4323 13.3584 22.7546 13.8078L29.4053 20.5572H11.9354C11.4598 20.6002 11.2214 20.8921 11.2204 21.4318C11.2193 21.9715 11.4577 22.2634 11.9344 22.3065L29.4064 22.1899L22.762 28.8889C22.4249 29.3247 22.4249 29.7079 22.762 30.0355C23.098 30.3642 23.4581 30.3862 23.8403 30.1006L31.9883 22.0156C32.0638 21.9387 32.1232 21.8476 32.1632 21.7476C32.2032 21.6476 32.223 21.5406 32.2214 21.4329C32.2253 21.3294 32.2065 21.2262 32.1662 21.1308C32.126 21.0354 32.0652 20.95 31.9883 20.8806" fill="#583101"/>
</g>
<defs>
<clipPath id="clip0_60_154">
<rect width="21" height="21" fill="white" transform="matrix(0 1 -1 0 32.2214 10.8511)"/>
</clipPath>
</defs>
</svg>
