<svg width="80" height="80" viewBox="0 0 80 80" fill="none" xmlns="http://www.w3.org/2000/svg">
<rect x="0.5" y="0.186523" width="79" height="79" fill="#583101"/>
<path d="M28.3333 51.3534C27.5313 51.3534 26.8449 51.068 26.2742 50.4973C25.7035 49.9266 25.4176 49.2397 25.4167 48.4367V30.9367C25.4167 30.1346 25.7025 29.4482 26.2742 28.8775C26.8458 28.3068 27.5322 28.021 28.3333 28.02H51.6667C52.4688 28.02 53.1556 28.3059 53.7273 28.8775C54.299 29.4492 54.5843 30.1356 54.5833 30.9367V48.4367C54.5833 49.2388 54.298 49.9256 53.7273 50.4973C53.1566 51.069 52.4697 51.3543 51.6667 51.3534H28.3333ZM40 41.145L51.6667 33.8534V30.9367L40 38.2284L28.3333 30.9367V33.8534L40 41.145Z" fill="white"/>
</svg>
