<svg width="30" height="24" viewBox="0 0 30 24" fill="none" xmlns="http://www.w3.org/2000/svg">
<path d="M3.33334 23.3534C2.53126 23.3534 1.84487 23.068 1.27417 22.4973C0.703477 21.9266 0.417644 21.2397 0.416672 20.4367V2.93669C0.416672 2.1346 0.702505 1.44821 1.27417 0.877519C1.84584 0.306825 2.53223 0.0209918 3.33334 0.0200195H26.6667C27.4688 0.0200195 28.1556 0.305853 28.7273 0.877519C29.299 1.44919 29.5843 2.13558 29.5833 2.93669V20.4367C29.5833 21.2388 29.298 21.9256 28.7273 22.4973C28.1566 23.069 27.4697 23.3543 26.6667 23.3534H3.33334ZM15 13.145L26.6667 5.85335V2.93669L15 10.2284L3.33334 2.93669V5.85335L15 13.145Z" fill="white"/>
</svg>
