<svg width="36" height="36" viewBox="0 0 36 36" fill="none" xmlns="http://www.w3.org/2000/svg">
<path d="M18.2569 6.08789C19.804 6.08789 21.2878 6.70247 22.3817 7.79643C23.4757 8.8904 24.0903 10.3741 24.0903 11.9212C24.0903 13.4683 23.4757 14.9521 22.3817 16.046C21.2878 17.14 19.804 17.7546 18.2569 17.7546C16.7098 17.7546 15.2261 17.14 14.1321 16.046C13.0382 14.9521 12.4236 13.4683 12.4236 11.9212C12.4236 10.3741 13.0382 8.8904 14.1321 7.79643C15.2261 6.70247 16.7098 6.08789 18.2569 6.08789ZM18.2569 20.6712C24.7028 20.6712 29.9236 23.2816 29.9236 26.5046V29.4212H6.59027V26.5046C6.59027 23.2816 11.8111 20.6712 18.2569 20.6712Z" fill="#583101"/>
</svg>
