<svg width="36" height="36" viewBox="0 0 36 36" fill="none" xmlns="http://www.w3.org/2000/svg">
<g clip-path="url(#clip0_71_335)">
<path d="M35.0191 21.5462C35.0191 22.4212 33.2691 23.0046 31.2274 23.2962C29.9149 20.8171 27.2899 18.9212 24.2274 17.6087C24.5191 17.1712 24.8108 16.8796 25.1024 16.4421H26.2691C30.7899 16.2962 35.0191 19.0671 35.0191 21.5462ZM9.93577 16.2962H8.7691C4.24827 16.2962 0.019104 19.0671 0.019104 21.5462C0.019104 22.4212 1.7691 23.0046 3.81077 23.2962C5.12327 20.8171 7.74827 18.9212 10.8108 17.6087L9.93577 16.2962ZM17.5191 17.7546C20.7274 17.7546 23.3524 15.1296 23.3524 11.9212C23.3524 8.71289 20.7274 6.08789 17.5191 6.08789C14.3108 6.08789 11.6858 8.71289 11.6858 11.9212C11.6858 15.1296 14.3108 17.7546 17.5191 17.7546ZM17.5191 19.2129C11.5399 19.2129 5.85244 23.0046 5.85244 26.5046C5.85244 29.4212 17.5191 29.4212 17.5191 29.4212C17.5191 29.4212 29.1858 29.4212 29.1858 26.5046C29.1858 23.0046 23.4983 19.2129 17.5191 19.2129ZM25.8316 14.8379H26.2691C28.7483 14.8379 30.6441 12.9421 30.6441 10.4629C30.6441 7.98372 28.7483 6.08789 26.2691 6.08789C25.5399 6.08789 24.9566 6.23372 24.3733 6.52539C25.5399 7.98372 26.2691 9.87956 26.2691 11.9212C26.2691 12.9421 26.1233 13.9629 25.8316 14.8379ZM8.7691 14.8379H9.2066C8.91494 13.9629 8.7691 12.9421 8.7691 11.9212C8.7691 9.87956 9.49827 7.98372 10.6649 6.52539C10.0816 6.23372 9.49827 6.08789 8.7691 6.08789C6.28994 6.08789 4.3941 7.98372 4.3941 10.4629C4.3941 12.9421 6.28994 14.8379 8.7691 14.8379Z" fill="#583101"/>
</g>
<defs>
<clipPath id="clip0_71_335">
<rect width="35" height="35" fill="white" transform="translate(0.019104 0.254883)"/>
</clipPath>
</defs>
</svg>
