<svg width="36" height="36" viewBox="0 0 36 36" fill="none" xmlns="http://www.w3.org/2000/svg">
<path d="M32.4592 24.4052C32.2154 26.2578 31.3056 27.9583 29.8997 29.1891C28.4938 30.4199 26.6879 31.0968 24.8193 31.0935C13.9639 31.0935 5.13185 22.2614 5.13185 11.406C5.1285 9.53743 5.80544 7.73155 7.03625 6.32563C8.26705 4.91972 9.96755 4.00991 11.8201 3.76613C12.2886 3.70893 12.763 3.80477 13.1725 4.03935C13.5821 4.27392 13.9047 4.63466 14.0924 5.06769L16.9799 11.514V11.5304C17.1236 11.8619 17.1829 12.2238 17.1526 12.5838C17.1223 12.9438 17.0033 13.2907 16.8063 13.5935C16.7817 13.6304 16.7557 13.6646 16.7283 13.6987L13.8818 17.073C14.9059 19.1538 17.0824 21.3112 19.1906 22.338L22.5184 19.5066C22.551 19.4791 22.5853 19.4535 22.6209 19.43C22.9235 19.2282 23.2715 19.105 23.6337 19.0716C23.9958 19.0382 24.3606 19.0956 24.6949 19.2386L24.7127 19.2468L31.1535 22.1329C31.5873 22.3199 31.9489 22.6423 32.1843 23.0519C32.4196 23.4615 32.5161 23.9362 32.4592 24.4052Z" fill="#583101"/>
</svg>
