<svg width="36" height="36" viewBox="0 0 36 36" fill="none" xmlns="http://www.w3.org/2000/svg">
<path d="M12.2543 4.11426C12.2543 3.82418 12.1391 3.54598 11.934 3.34086C11.7289 3.13574 11.4507 3.02051 11.1606 3.02051C10.8705 3.02051 10.5923 3.13574 10.3872 3.34086C10.1821 3.54598 10.0668 3.82418 10.0668 4.11426V6.41842C7.96684 6.58613 6.59017 6.99738 5.57809 8.01092C4.56455 9.02301 4.1533 10.4011 3.98413 12.4997H32.9204C32.7512 10.3997 32.34 9.02301 31.3264 8.01092C30.3143 6.99738 28.9362 6.58613 26.8377 6.41697V4.11426C26.8377 3.82418 26.7224 3.54598 26.5173 3.34086C26.3122 3.13574 26.034 3.02051 25.7439 3.02051C25.4538 3.02051 25.1756 3.13574 24.9705 3.34086C24.7654 3.54598 24.6502 3.82418 24.6502 4.11426V6.32072C23.6804 6.30176 22.5925 6.30176 21.3689 6.30176H15.5356C14.312 6.30176 13.2241 6.30176 12.2543 6.32072V4.11426Z" fill="#583101"/>
<path fill-rule="evenodd" clip-rule="evenodd" d="M3.86896 17.9683C3.86896 16.7447 3.86896 15.6568 3.88792 14.687H33.0167C33.0356 15.6568 33.0356 16.7447 33.0356 17.9683V20.8849C33.0356 26.3843 33.0356 29.1347 31.3265 30.8424C29.6187 32.5516 26.8683 32.5516 21.369 32.5516H15.5356C10.0362 32.5516 7.28583 32.5516 5.57812 30.8424C3.86896 29.1347 3.86896 26.3843 3.86896 20.8849V17.9683ZM25.744 20.8849C26.1307 20.8849 26.5017 20.7313 26.7752 20.4578C27.0486 20.1843 27.2023 19.8134 27.2023 19.4266C27.2023 19.0398 27.0486 18.6689 26.7752 18.3954C26.5017 18.1219 26.1307 17.9683 25.744 17.9683C25.3572 17.9683 24.9862 18.1219 24.7128 18.3954C24.4393 18.6689 24.2856 19.0398 24.2856 19.4266C24.2856 19.8134 24.4393 20.1843 24.7128 20.4578C24.9862 20.7313 25.3572 20.8849 25.744 20.8849ZM25.744 26.7183C26.1307 26.7183 26.5017 26.5646 26.7752 26.2911C27.0486 26.0176 27.2023 25.6467 27.2023 25.2599C27.2023 24.8732 27.0486 24.5022 26.7752 24.2287C26.5017 23.9552 26.1307 23.8016 25.744 23.8016C25.3572 23.8016 24.9862 23.9552 24.7128 24.2287C24.4393 24.5022 24.2856 24.8732 24.2856 25.2599C24.2856 25.6467 24.4393 26.0176 24.7128 26.2911C24.9862 26.5646 25.3572 26.7183 25.744 26.7183ZM19.9106 19.4266C19.9106 19.8134 19.757 20.1843 19.4835 20.4578C19.21 20.7313 18.8391 20.8849 18.4523 20.8849C18.0655 20.8849 17.6946 20.7313 17.4211 20.4578C17.1476 20.1843 16.994 19.8134 16.994 19.4266C16.994 19.0398 17.1476 18.6689 17.4211 18.3954C17.6946 18.1219 18.0655 17.9683 18.4523 17.9683C18.8391 17.9683 19.21 18.1219 19.4835 18.3954C19.757 18.6689 19.9106 19.0398 19.9106 19.4266ZM19.9106 25.2599C19.9106 25.6467 19.757 26.0176 19.4835 26.2911C19.21 26.5646 18.8391 26.7183 18.4523 26.7183C18.0655 26.7183 17.6946 26.5646 17.4211 26.2911C17.1476 26.0176 16.994 25.6467 16.994 25.2599C16.994 24.8732 17.1476 24.5022 17.4211 24.2287C17.6946 23.9552 18.0655 23.8016 18.4523 23.8016C18.8391 23.8016 19.21 23.9552 19.4835 24.2287C19.757 24.5022 19.9106 24.8732 19.9106 25.2599ZM11.1606 20.8849C11.5474 20.8849 11.9183 20.7313 12.1918 20.4578C12.4653 20.1843 12.619 19.8134 12.619 19.4266C12.619 19.0398 12.4653 18.6689 12.1918 18.3954C11.9183 18.1219 11.5474 17.9683 11.1606 17.9683C10.7738 17.9683 10.4029 18.1219 10.1294 18.3954C9.85594 18.6689 9.70229 19.0398 9.70229 19.4266C9.70229 19.8134 9.85594 20.1843 10.1294 20.4578C10.4029 20.7313 10.7738 20.8849 11.1606 20.8849ZM11.1606 26.7183C11.5474 26.7183 11.9183 26.5646 12.1918 26.2911C12.4653 26.0176 12.619 25.6467 12.619 25.2599C12.619 24.8732 12.4653 24.5022 12.1918 24.2287C11.9183 23.9552 11.5474 23.8016 11.1606 23.8016C10.7738 23.8016 10.4029 23.9552 10.1294 24.2287C9.85594 24.5022 9.70229 24.8732 9.70229 25.2599C9.70229 25.6467 9.85594 26.0176 10.1294 26.2911C10.4029 26.5646 10.7738 26.7183 11.1606 26.7183Z" fill="#583101"/>
</svg>
