<svg width="25" height="25" viewBox="0 0 25 25" fill="none" xmlns="http://www.w3.org/2000/svg">
<path d="M12.491 1.18672C11.0577 1.13451 9.62877 1.37331 8.29036 1.88871C6.95196 2.4041 5.73189 3.1854 4.70383 4.18542C3.67577 5.18545 2.86104 6.38345 2.30884 7.7071C1.75664 9.03074 1.47843 10.4526 1.491 11.8867C1.47207 13.3646 1.76654 14.8298 2.355 16.1856C2.94346 17.5414 3.81255 18.7572 4.905 19.7527L4.957 21.4427C4.97155 21.9102 5.16746 22.3536 5.50325 22.6791C5.83903 23.0046 6.28833 23.1867 6.756 23.1867C7.00587 23.1864 7.253 23.1347 7.482 23.0347L9.403 22.1867C10.4104 22.4548 11.4486 22.5893 12.491 22.5867C13.9243 22.6389 15.3533 22.4001 16.6918 21.8848C18.0302 21.3694 19.2504 20.5881 20.2785 19.5881C21.3067 18.5881 22.1215 17.3901 22.6738 16.0664C23.2261 14.7428 23.5044 13.3209 23.492 11.8867C23.5044 10.4526 23.2261 9.03085 22.6739 7.70727C22.1216 6.38369 21.3069 5.18574 20.2789 4.18575C19.2508 3.18575 18.0308 2.40445 16.6925 1.889C15.3541 1.37355 13.9252 1.13465 12.492 1.18672H12.491ZM12.491 20.5867C11.6009 20.5895 10.7145 20.4718 9.856 20.2367C9.45855 20.1297 9.0364 20.1621 8.66 20.3287L6.946 21.0847L6.901 19.5917C6.89119 19.3498 6.83295 19.1123 6.72971 18.8933C6.62648 18.6743 6.48036 18.4782 6.3 18.3167C5.40028 17.5072 4.68407 16.5147 4.19942 15.4057C3.71477 14.2967 3.47289 13.0969 3.49 11.8867C3.48369 10.7169 3.71446 9.55799 4.16836 8.47983C4.62227 7.40167 5.2899 6.42665 6.13098 5.6136C6.97206 4.80056 7.96915 4.16635 9.06207 3.74924C10.155 3.33213 11.3211 3.14078 12.49 3.18672C13.6573 3.14714 14.8207 3.34288 15.9108 3.76228C17.0009 4.18167 17.9954 4.81615 18.8352 5.62793C19.6749 6.43971 20.3428 7.41218 20.7989 8.48744C21.255 9.56269 21.49 10.7187 21.49 11.8867C21.49 13.0547 21.255 14.2108 20.7989 15.286C20.3428 16.3613 19.6749 17.3337 18.8352 18.1455C17.9954 18.9573 17.0009 19.5918 15.9108 20.0112C14.8207 20.4306 13.6573 20.6263 12.49 20.5867H12.491ZM16.226 8.77172L13.913 11.5267L10.566 9.47072C10.3618 9.34501 10.1191 9.29704 9.88238 9.33561C9.64568 9.37417 9.43077 9.49668 9.277 9.68072L6.226 13.3167C6.13464 13.4162 6.06437 13.5331 6.01943 13.6605C5.9745 13.7879 5.95583 13.923 5.96455 14.0578C5.97327 14.1926 6.00921 14.3242 6.07018 14.4447C6.13116 14.5652 6.21591 14.6721 6.31933 14.759C6.42275 14.8458 6.5427 14.9108 6.67193 14.9501C6.80116 14.9893 6.937 15.002 7.07126 14.9873C7.20551 14.9726 7.3354 14.9308 7.45309 14.8646C7.57077 14.7983 7.67381 14.7089 7.756 14.6017L10.255 11.6267L13.602 13.6827C13.8062 13.8084 14.0489 13.8564 14.2856 13.8178C14.5223 13.7793 14.7372 13.6568 14.891 13.4727L17.757 10.0577C17.8451 9.9577 17.9124 9.84107 17.9548 9.71467C17.9972 9.58828 18.0139 9.45469 18.0039 9.32175C17.9939 9.18881 17.9575 9.0592 17.8967 8.94056C17.8359 8.82191 17.752 8.71662 17.6499 8.63088C17.5478 8.54513 17.4296 8.48066 17.3023 8.44126C17.1749 8.40186 17.041 8.38833 16.9083 8.40145C16.7756 8.41457 16.6469 8.45409 16.5298 8.51768C16.4126 8.58127 16.3093 8.66764 16.226 8.77172Z" fill="#583101"/>
</svg>
