<svg width="25" height="25" viewBox="0 0 25 25" fill="none" xmlns="http://www.w3.org/2000/svg">
<path d="M22.451 15.8006C21.8338 15.6568 21.2518 15.3904 20.7396 15.0171C20.2275 14.6438 19.7957 14.1712 19.47 13.6276C19.3213 13.4078 19.0915 13.2562 18.831 13.2059C18.5705 13.1556 18.3007 13.2109 18.081 13.3596C17.8613 13.5082 17.7096 13.7381 17.6593 13.9986C17.6091 14.259 17.6643 14.5288 17.813 14.7486C18.4326 15.6941 19.2531 16.4914 20.216 17.0836C20.081 17.1086 19.935 17.1336 19.774 17.1586C19.4896 17.2191 19.2319 17.3688 19.0384 17.5859C18.8449 17.803 18.7257 18.0761 18.698 18.3656C18.0316 18.2519 17.3509 18.2506 16.684 18.3616C15.9647 18.5203 15.2935 18.848 14.726 19.3176C14.1419 19.835 13.401 20.1414 12.622 20.1876H12.362C11.5821 20.1412 10.8404 19.8341 10.256 19.3156C9.69652 18.8518 9.03568 18.5264 8.327 18.3656C7.65112 18.258 6.96234 18.2597 6.287 18.3706C6.26065 18.0825 6.14366 17.8102 5.95284 17.5928C5.76203 17.3754 5.50721 17.2241 5.225 17.1606C5.07958 17.1381 4.93456 17.1131 4.79 17.0856C5.46975 16.6924 6.07692 16.1853 6.585 15.5866C6.81954 15.3147 7.03188 15.0244 7.22 14.7186C7.36056 14.4937 7.40603 14.2221 7.34639 13.9637C7.28676 13.7053 7.1269 13.4811 6.902 13.3406C6.6771 13.2 6.40557 13.1545 6.14714 13.2142C5.88871 13.2738 5.66457 13.4337 5.524 13.6586C5.39085 13.8752 5.24107 14.0811 5.076 14.2746C4.43679 15.0747 3.53025 15.6173 2.523 15.8026C2.23059 15.8489 1.9649 15.9997 1.77515 16.227C1.58539 16.4542 1.48444 16.7426 1.491 17.0386C1.49061 17.2224 1.52983 17.4042 1.606 17.5716C1.922 18.2876 2.762 18.7396 4.391 19.0456L4.421 19.1756C4.451 19.2936 4.479 19.4146 4.514 19.5236C4.59078 19.8012 4.75836 20.0452 4.99001 20.2165C5.22166 20.3878 5.50401 20.4765 5.792 20.4686C5.99572 20.4634 6.19812 20.4342 6.395 20.3816C6.91782 20.2756 7.45492 20.2601 7.983 20.3356C8.39739 20.4585 8.78042 20.6693 9.106 20.9536C10.0254 21.7124 11.1696 22.1466 12.361 22.1886H12.622C13.821 22.1446 14.972 21.7059 15.896 20.9406C16.2229 20.6556 16.6093 20.4472 17.027 20.3306C17.233 20.2945 17.4419 20.2771 17.651 20.2786C17.9723 20.2779 18.2927 20.3134 18.606 20.3846C18.8092 20.4227 19.0153 20.4441 19.222 20.4486C19.5029 20.4561 19.7781 20.3693 20.0038 20.202C20.2295 20.0347 20.3926 19.7965 20.467 19.5256C20.505 19.4036 20.534 19.2856 20.561 19.1706L20.593 19.0466C22.217 18.7416 23.06 18.2926 23.36 17.6066C23.4362 17.4575 23.4795 17.2938 23.487 17.1266C23.5118 16.816 23.4191 16.5074 23.2272 16.2618C23.0354 16.0163 22.7584 15.8517 22.451 15.8006ZM4.301 11.3346C4.50562 11.3733 4.71723 11.3476 4.90658 11.2609C5.09594 11.1742 5.25368 11.0308 5.358 10.8506C5.75425 11.0523 6.18885 11.1675 6.633 11.1886C7.10381 11.1947 7.55816 11.0155 7.898 10.6896C8.0057 10.5893 8.08996 10.4665 8.14475 10.33C8.19955 10.1934 8.22354 10.0465 8.215 9.89956L8.179 9.29756C8.01517 8.1109 8.06803 6.90435 8.335 5.73656C8.67251 4.9694 9.22881 4.31885 9.93426 3.86633C10.6397 3.41381 11.463 3.17944 12.301 3.19256L12.689 3.18856C13.5262 3.17741 14.3482 3.41299 15.0524 3.86593C15.7566 4.31887 16.3119 4.96911 16.649 5.73556C16.916 6.90437 16.9689 8.1119 16.805 9.29956L16.795 9.46256L16.768 9.90656C16.7624 10.0509 16.7873 10.1948 16.8411 10.3288C16.8949 10.4629 16.9763 10.5841 17.08 10.6846C17.4165 11.0092 17.8664 11.1896 18.334 11.1876C18.7678 11.1497 19.1898 11.0256 19.575 10.8226C19.6531 11.0004 19.7813 11.1517 19.944 11.2579C20.1067 11.3641 20.2967 11.4206 20.491 11.4206H20.509C20.7741 11.4158 21.0264 11.306 21.2105 11.1153C21.3947 10.9246 21.4955 10.6686 21.491 10.4036C21.465 10.0697 21.3375 9.75183 21.1257 9.49248C20.9139 9.23314 20.6279 9.04474 20.306 8.95256C20.0714 8.85631 19.82 8.80763 19.5665 8.80935C19.3129 8.81107 19.0623 8.86314 18.829 8.96256C19.0044 7.60548 18.8836 6.2265 18.475 4.92056C17.9828 3.7976 17.1704 2.84465 16.1396 2.18087C15.1087 1.51709 13.905 1.17194 12.679 1.18856L12.286 1.19256C11.0631 1.17769 9.86286 1.52357 8.83539 2.18697C7.80792 2.85037 6.99875 3.80187 6.509 4.92256C6.09712 6.24574 5.97703 7.64249 6.157 9.01656L6.046 8.96456C5.80159 8.86578 5.53938 8.81868 5.27587 8.82624C5.01236 8.83381 4.75328 8.89586 4.51494 9.0085C4.2766 9.12114 4.06418 9.28193 3.89105 9.48072C3.71792 9.67951 3.58784 9.91201 3.509 10.1636C3.45942 10.4239 3.51503 10.6934 3.66365 10.9128C3.81228 11.1323 4.04181 11.284 4.302 11.3346H4.301Z" fill="#583101"/>
</svg>
