<svg width="25" height="25" viewBox="0 0 25 25" fill="none" xmlns="http://www.w3.org/2000/svg">
<path d="M23.491 4.13665C23.491 3.96014 23.4442 3.78679 23.3555 3.6342C23.2668 3.48161 23.1393 3.35522 22.9859 3.26787C22.8325 3.18052 22.6588 3.13532 22.4823 3.13686C22.3058 3.1384 22.1328 3.18663 21.981 3.27665C21.3954 3.62546 20.7649 3.8926 20.107 4.07065C19.168 3.26492 17.9703 2.82406 16.733 2.82865C15.3757 2.83028 14.0722 3.35928 13.0977 4.30397C12.1231 5.24866 11.5538 6.53509 11.51 7.89165C8.8338 7.46497 6.40828 6.06818 4.696 3.96765C4.59283 3.84262 4.46113 3.7442 4.31199 3.68069C4.16285 3.61717 4.00064 3.5904 3.839 3.60265C3.6774 3.61602 3.52148 3.66854 3.38472 3.75565C3.24795 3.84276 3.13444 3.96186 3.054 4.10265C2.64152 4.82255 2.40464 5.62958 2.36259 6.4582C2.32055 7.28683 2.47452 8.1137 2.812 8.87165L2.81 8.87265C2.65799 8.96606 2.53253 9.09697 2.44567 9.25282C2.35882 9.40867 2.31348 9.58423 2.314 9.76265C2.3124 9.90944 2.32142 10.0562 2.341 10.2016C2.44312 11.4597 3.00064 12.6373 3.909 13.5136C3.84736 13.6312 3.80978 13.7598 3.79844 13.892C3.78711 14.0242 3.80226 14.1574 3.843 14.2836C4.23898 15.5178 5.08126 16.5598 6.205 17.2056C5.06317 17.6471 3.8303 17.8009 2.615 17.6536C2.39017 17.6257 2.16251 17.6749 1.96931 17.7932C1.77611 17.9116 1.62881 18.092 1.55154 18.305C1.47427 18.5179 1.47162 18.7508 1.54401 18.9655C1.6164 19.1802 1.75955 19.3639 1.95 19.4866C4.04021 20.8327 6.47388 21.5482 8.96 21.5476C11.7792 21.5794 14.5299 20.6785 16.7842 18.9852C19.0385 17.2919 20.6701 14.9011 21.425 12.1846C21.778 11.0014 21.9582 9.7734 21.96 8.53865L21.959 8.33865C22.4812 7.77545 22.8856 7.11368 23.1487 6.39213C23.4118 5.67057 23.5281 4.90376 23.491 4.13665ZM20.185 7.34865C20.0197 7.54387 19.9359 7.79527 19.951 8.05065C19.961 8.21565 19.96 8.38165 19.96 8.53865C19.9579 9.58183 19.805 10.6192 19.506 11.6186C18.8897 13.9303 17.5154 15.9682 15.6033 17.406C13.6912 18.8438 11.3519 19.5983 8.96 19.5486C8.10113 19.5488 7.24524 19.4478 6.41 19.2477C7.47531 18.9041 8.47136 18.3746 9.352 17.6836C9.51439 17.556 9.63326 17.3811 9.69227 17.1832C9.75128 16.9852 9.74754 16.7739 9.68156 16.5781C9.61558 16.3824 9.4906 16.2119 9.32379 16.09C9.15699 15.9682 8.95654 15.901 8.75 15.8976C7.91873 15.8846 7.12496 15.5494 6.536 14.9626C6.68533 14.9346 6.83367 14.8996 6.981 14.8576C7.19703 14.7962 7.38609 14.6639 7.51774 14.4819C7.64939 14.3 7.71595 14.079 7.70671 13.8546C7.69747 13.6302 7.61297 13.4155 7.46681 13.245C7.32065 13.0744 7.12134 12.9581 6.901 12.9146C6.41849 12.8193 5.96447 12.614 5.57423 12.3147C5.184 12.0153 4.86806 11.63 4.651 11.1886C4.83176 11.2134 5.01366 11.2287 5.196 11.2346C5.41268 11.2382 5.62487 11.1727 5.8018 11.0475C5.97872 10.9224 6.11119 10.7441 6.18 10.5386C6.24605 10.3314 6.24273 10.1083 6.17055 9.90311C6.09837 9.69793 5.96126 9.52188 5.78 9.40165C5.33994 9.10871 4.97941 8.71119 4.73071 8.24469C4.48202 7.7782 4.35293 7.25729 4.355 6.72865C4.355 6.66265 4.357 6.59565 4.361 6.53065C6.60246 8.62128 9.50991 9.85367 12.571 10.0106C12.7256 10.0165 12.8794 9.98715 13.021 9.92479C13.1625 9.86242 13.288 9.76867 13.388 9.65065C13.487 9.5319 13.5572 9.3918 13.5929 9.24136C13.6287 9.09093 13.629 8.93425 13.594 8.78365C13.5367 8.54486 13.5076 8.30021 13.507 8.05465C13.5081 7.19939 13.8483 6.37945 14.453 5.77469C15.0578 5.16993 15.8777 4.82971 16.733 4.82865C17.1731 4.82735 17.6088 4.91732 18.0124 5.09288C18.416 5.26844 18.7789 5.52578 19.078 5.84865C19.1933 5.97277 19.3385 6.06531 19.4997 6.11748C19.6609 6.16964 19.8328 6.17968 19.999 6.14665C20.4098 6.0668 20.8147 5.95922 21.211 5.82465C20.9408 6.37747 20.5955 6.89032 20.185 7.34865Z" fill="#583101"/>
</svg>
