<svg width="25" height="25" viewBox="0 0 25 25" fill="none" xmlns="http://www.w3.org/2000/svg">
<path d="M17.1 14.1866C16.9 14.0866 15.6 13.4866 15.4 13.3866C15.2 13.2866 15 13.2866 14.8 13.4866C14.6 13.6866 14.2 14.2866 14 14.4866C13.9 14.6866 13.7 14.6866 13.5 14.5866C12.8 14.2866 12.1 13.8866 11.5 13.3866C11 12.8866 10.5 12.2866 10.1 11.6866C10 11.4866 10.1 11.2866 10.2 11.1866C10.3 11.0866 10.4 10.8866 10.6 10.7866C10.7 10.6866 10.8 10.4866 10.8 10.3866C10.9 10.2866 10.9 10.0866 10.8 9.98662C10.7 9.88662 10.2 8.68662 10 8.18662C9.9 7.48662 9.7 7.48662 9.5 7.48662H9C8.8 7.48662 8.5 7.68662 8.4 7.78662C7.8 8.38662 7.5 9.08662 7.5 9.88662C7.6 10.7866 7.9 11.6866 8.5 12.4866C9.6 14.0866 11 15.3866 12.7 16.1866C13.2 16.3866 13.6 16.5866 14.1 16.6866C14.6 16.8866 15.1 16.8866 15.7 16.7866C16.4 16.6866 17 16.1866 17.4 15.5866C17.6 15.1866 17.6 14.7866 17.5 14.3866L17.1 14.1866ZM19.6 5.08662C15.7 1.18662 9.4 1.18662 5.5 5.08662C2.3 8.28662 1.7 13.1866 3.9 17.0866L2.5 22.1866L7.8 20.7866C9.3 21.5866 10.9 21.9866 12.5 21.9866C18 21.9866 22.4 17.5866 22.4 12.0866C22.5 9.48662 21.4 6.98662 19.6 5.08662ZM16.9 19.0866C15.6 19.8866 14.1 20.3866 12.5 20.3866C11 20.3866 9.6 19.9866 8.3 19.2866L8 19.0866L4.9 19.8866L5.7 16.8866L5.5 16.5866C3.1 12.5866 4.3 7.58662 8.2 5.08662C12.1 2.58662 17.1 3.88662 19.5 7.68662C21.9 11.5866 20.8 16.6866 16.9 19.0866Z" fill="#583101"/>
</svg>
